<svg class="main-logo" width="226" height="28" viewBox="0 0 226 28" fill="none" xmlns="http://www.w3.org/2000/svg">
<path d="M21.2192 27.34V5.954C21.2192 3.982 22.0012 3.71 24.4832 3.506V3.132H16.4252V3.506C19.6552 3.676 20.4712 3.982 20.4712 5.954V20.982L6.56516 3.132H0.00316408V3.506C1.22716 3.574 2.21316 4.39 3.40316 5.784V24.178C3.40316 26.15 2.62116 26.422 0.139164 26.626V27H8.23116V26.626C5.03516 26.456 4.15116 26.15 4.15116 24.178V6.702L20.6752 27.34H21.2192ZM29.3199 6.43C30.7479 6.43 31.7679 5.342 31.7679 4.05C31.7679 2.724 30.7479 1.636 29.3199 1.636C27.9259 1.636 26.9059 2.724 26.9059 4.05C26.9059 5.342 27.9259 6.43 29.3199 6.43ZM31.3259 8.844H31.1899L25.2739 10.612V10.748L27.5179 12.04V25.062C27.5179 26.388 26.8719 26.524 25.1719 26.626V27H33.7059V26.626C32.0059 26.524 31.3259 26.388 31.3259 25.062V8.844ZM42.5916 9.388C44.7336 9.388 45.4476 11.53 45.4476 13.23C45.4476 13.842 45.3796 14.318 45.3116 14.76H47.4876C48.1336 14.386 48.6776 13.502 48.6776 12.516C48.6776 10.204 46.5016 8.844 43.3396 8.844C38.5456 8.844 34.8396 13.06 34.8396 18.568C34.8396 23.532 37.7636 27.34 42.3196 27.34C45.7876 27.34 48.2696 25.062 49.0176 21.832L48.8816 21.764C47.7596 23.6 46.1276 24.62 43.9516 24.62C40.5176 24.62 38.2056 21.594 38.2056 16.46C38.2056 12.516 39.9736 9.388 42.5916 9.388ZM63.0671 25.062C63.0671 26.388 62.4211 26.524 60.7211 26.626V27H69.2211V26.626C67.5211 26.524 66.8751 26.388 66.8751 25.062V14.318C66.8751 10.748 65.3111 8.844 62.1831 8.844C59.4971 8.844 57.2531 10.714 55.9271 12.278V0.377998H55.7911L49.8751 2.146V2.282L52.1191 3.574V25.062C52.1191 26.388 51.4731 26.524 49.7731 26.626V27H58.2731V26.626C56.5731 26.524 55.9271 26.388 55.9271 25.062V12.55C57.0831 11.7 58.6131 11.122 60.0751 11.122C62.1491 11.122 63.0671 12.21 63.0671 14.692V25.062ZM78.6654 8.844C73.9734 8.844 70.2334 12.686 70.2334 18.5C70.2334 23.566 73.5994 27.34 78.4954 27.34C83.2214 27.34 86.9274 23.498 86.9274 17.65C86.9274 12.618 83.5954 8.844 78.6654 8.844ZM78.6654 26.864C75.6734 26.864 74.2794 22.376 74.2794 17.48C74.2794 12.516 75.7754 9.32 78.4954 9.32C81.5214 9.32 82.9154 13.808 82.9154 18.704C82.9154 23.634 81.4194 26.864 78.6654 26.864ZM94.2111 0.377998H94.0751L88.1591 2.146V2.282L90.4031 3.574V25.062C90.4031 26.388 89.7571 26.524 88.0571 26.626V27H96.5571V26.626C94.8571 26.524 94.2111 26.388 94.2111 25.062V0.377998ZM111.36 14.216C111.36 10.476 109.252 8.844 105.24 8.844C101.806 8.844 98.7463 10.476 98.7463 13.06C98.7463 14.08 99.3923 14.896 100.174 15.1L102.452 14.794C102.214 14.148 102.146 13.4 102.146 12.72C102.146 10.782 102.962 9.354 104.73 9.354C106.77 9.354 107.552 11.054 107.552 13.366V16.358L102.724 18.058C99.9023 19.044 97.7943 20.472 97.7943 23.056C97.7943 25.572 99.7323 27.272 102.248 27.272C104.594 27.272 106.464 25.742 107.586 24.348C107.824 26.116 108.98 27.272 110.714 27.272C112.142 27.272 113.434 26.524 114.284 25.232L114.216 25.096C113.842 25.3 113.4 25.402 112.924 25.402C111.938 25.402 111.36 24.858 111.36 23.6V14.216ZM104.458 25.3C102.588 25.3 101.398 23.94 101.398 21.934C101.398 19.996 102.418 18.942 104.05 18.262L107.552 16.8V24.042C106.6 24.994 105.512 25.3 104.458 25.3ZM121.183 27.34C125.025 27.34 127.847 25.13 127.847 21.73C127.847 15.372 118.395 17.208 118.395 12.38C118.395 10.578 119.653 9.32 121.557 9.32C124.209 9.32 126.079 11.972 126.453 14.556H126.725V10.272C125.331 9.388 123.733 8.844 121.727 8.844C118.395 8.844 115.573 10.85 115.573 14.148C115.573 20.336 124.889 18.704 124.889 23.396C124.889 25.606 123.291 26.83 121.353 26.83C118.497 26.83 116.185 24.246 115.437 20.744H115.131L115.335 25.674C116.661 26.66 118.939 27.34 121.183 27.34ZM152.96 18.636V25.538C151.872 26.49 150.41 26.796 148.914 26.796C143.712 26.796 141.23 21.05 141.23 14.658C141.23 8.402 143.916 3.268 149.118 3.268C152.518 3.268 155.204 6.022 155.918 10H156.224V4.764C154.388 3.574 151.94 2.792 149.288 2.792C142.284 2.792 136.946 7.994 136.946 15.61C136.946 22.138 141.604 27.34 148.812 27.34C151.736 27.34 154.592 26.388 156.768 24.926V18.636C156.768 16.732 157.176 16.494 159.624 16.256V15.848H150.104V16.256C152.552 16.494 152.96 16.732 152.96 18.636ZM166.562 14.046L166.698 8.844H166.562L160.51 10.612V10.748L162.754 12.04V25.062C162.754 26.388 162.108 26.524 160.408 26.626V27H169.656V26.626C167.412 26.422 166.562 26.354 166.562 25.028V14.352C168.024 12.72 169.928 12.482 172.036 12.482H172.58V9.286C172.342 9.048 171.832 8.844 171.22 8.844C169.18 8.844 167.956 10.748 166.562 14.046ZM188.287 21.832L188.151 21.764C186.961 23.6 185.159 24.62 182.881 24.62C179.277 24.62 176.829 21.594 176.829 16.494V15.95H188.049V15.678C188.049 11.836 185.771 8.844 181.521 8.844C177.033 8.844 173.429 13.06 173.429 18.568C173.429 23.532 176.489 27.34 181.283 27.34C184.887 27.34 187.505 24.994 188.287 21.832ZM181.079 9.388C183.561 9.388 184.547 12.04 184.547 15.372H176.863C177.169 12.108 178.699 9.388 181.079 9.388ZM204.756 21.832L204.62 21.764C203.43 23.6 201.628 24.62 199.35 24.62C195.746 24.62 193.298 21.594 193.298 16.494V15.95H204.518V15.678C204.518 11.836 202.24 8.844 197.99 8.844C193.502 8.844 189.898 13.06 189.898 18.568C189.898 23.532 192.958 27.34 197.752 27.34C201.356 27.34 203.974 24.994 204.756 21.832ZM197.548 9.388C200.03 9.388 201.016 12.04 201.016 15.372H193.332C193.638 12.108 195.168 9.388 197.548 9.388ZM219.091 25.062C219.091 26.388 218.445 26.524 216.745 26.626V27H225.245V26.626C223.545 26.524 222.899 26.388 222.899 25.062V14.318C222.899 10.748 221.369 8.844 218.207 8.844C215.521 8.844 213.277 10.714 211.951 12.278L212.087 8.844H211.951L205.899 10.612V10.748L208.143 12.04V25.062C208.143 26.388 207.497 26.524 205.797 26.626V27H214.331V26.626C212.631 26.524 211.951 26.388 211.951 25.062V12.55C213.107 11.7 214.637 11.122 216.099 11.122C218.173 11.122 219.091 12.21 219.091 14.692V25.062Z" fill="white"/>
</svg>
